<svg width="40" height="31" viewBox="0 0 40 31" fill="none" xmlns="http://www.w3.org/2000/svg">
<path d="M20.0013 11.4774C20.0013 10.8348 20.5223 10.3138 21.1623 10.3138H28.8344C29.477 10.3138 29.998 9.7928 29.998 9.15016V1.47809C29.998 0.835443 29.477 0.314453 28.8344 0.314453H21.1623C20.5197 0.314453 19.9987 0.835443 19.9987 1.47809V9.15016C19.9987 9.7928 19.4777 10.3138 18.835 10.3138H11.163C10.5203 10.3138 9.99934 9.7928 9.99934 9.15016V1.47809C9.99934 0.835443 9.47834 0.314453 8.8357 0.314453H1.16363C0.52099 0.314453 0 0.835443 0 1.47809V29.1462C0 29.7888 0.52099 30.3098 1.16363 30.3098H8.8357C9.47834 30.3098 9.99934 29.7888 9.99934 29.1462V21.4741C9.99934 20.8315 10.5203 20.3105 11.163 20.3105H18.835C19.4777 20.3105 19.9987 20.8315 19.9987 21.4741V29.1462C19.9987 29.7888 20.5197 30.3098 21.1623 30.3098H28.8344C29.477 30.3098 29.998 29.7888 29.998 29.1462V21.4741C29.998 20.8315 29.477 20.3105 28.8344 20.3105H21.1623C20.5197 20.3105 20.0013 19.7895 20.0013 19.1468V11.4774Z" fill="white"/>
<path d="M31.4526 1.77164H38.5455V8.86454H31.4526V1.77164ZM31.4526 21.765H38.5455V28.8579H31.4526V21.765ZM28.5462 18.8612H21.4533V11.7683H28.5462V18.8612ZM28.8371 20.3131C29.4797 20.3131 30.0007 20.8341 30.0007 21.4768V29.1488C30.0007 29.7915 30.5217 30.3125 31.1643 30.3125H38.8364C39.4791 30.3125 40.0001 29.7915 40.0001 29.1488V21.4768C40.0001 20.8341 39.4791 20.3131 38.8364 20.3131H31.1643C30.5217 20.3131 30.0034 19.7921 30.0034 19.1495V11.4774C30.0034 10.8348 30.5243 10.3138 31.1643 10.3138H38.8364C39.4791 10.3138 40.0001 9.7928 40.0001 9.15016V1.47809C40.0001 0.835443 39.4791 0.314453 38.8364 0.314453H31.1643C30.5217 0.314453 30.0007 0.835443 30.0007 1.47809V9.15016C30.0007 9.7928 29.4797 10.3138 28.8371 10.3138H21.165C20.5224 10.3138 20.004 10.8348 20.004 11.4774V19.1495C20.004 19.7921 20.525 20.3131 21.165 20.3131H28.8371Z" fill="#0E7AE5"/>
</svg>
