<?xml version="1.0" encoding="UTF-8"?>
<svg id="_Слой_2" data-name="Слой 2" xmlns="http://www.w3.org/2000/svg" viewBox="0 0 468.88 51.05">
  <defs>
    <style>
      .cls-1 {
        fill: #777;
      }

      .cls-2 {
        fill: #c8c8c8;
        opacity: .4;
      }
    </style>
  </defs>
  <g id="Layer_1" data-name="Layer 1">
    <g>
      <g>
        <path class="cls-1" d="M121.19,13.18h7.56v3.6c.79-1.94,2.95-4.25,6.62-4.25,3.96,0,6.26,1.87,7.42,4.46.86-2.02,3.1-4.46,6.98-4.46,6.19,0,8.57,4.68,8.57,9.58v28.3h-7.56v-26.71c0-2.16-1.08-3.96-3.67-3.96-2.3,0-3.38,1.73-3.38,4.03v26.64h-7.56v-26.64c0-2.23-1.15-4.03-3.74-4.03-2.38,0-3.67,1.87-3.67,4.03v26.64h-7.56V13.18Z"/>
        <path class="cls-1" d="M167.78,33.55v-3.53c0-9.14,5.62-17.5,16.63-17.5s16.63,8.35,16.63,17.5v3.53c0,9.15-5.62,17.5-16.63,17.5s-16.63-8.35-16.63-17.5ZM184.41,43.85c6.26,0,9.07-4.75,9.07-10.3v-3.53c0-5.54-2.81-10.37-9.07-10.37s-9.07,4.82-9.07,10.37v3.53c0,5.54,2.81,10.3,9.07,10.3Z"/>
        <path class="cls-1" d="M213.21,13.18h7.56v5.11c1.51-3.02,5.18-5.76,10.44-5.76,8.64,0,13.75,6.05,13.75,13.54v24.34h-7.56v-21.82c0-4.82-2.52-8.86-8.28-8.86s-8.35,4.39-8.35,8.86v21.82h-7.56V13.18Z"/>
        <path class="cls-1" d="M257.27,33.55v-3.53c0-9.14,5.83-17.5,16.85-17.5,9.94,0,15.41,6.7,15.99,14.69h-7.56c-.43-4.32-3.17-7.56-8.43-7.56-6.26,0-9.29,4.82-9.29,10.37v3.53c0,5.54,3.02,10.3,9.29,10.3,4.9,0,7.56-2.88,8.28-6.77h7.63c-.86,7.7-6.26,13.97-15.91,13.97-11.02,0-16.85-8.35-16.85-17.5Z"/>
        <path class="cls-1" d="M301.84,43.56h13.25V6.84h-11.38V0h18.94v43.56h12.24v6.84h-33.05v-6.84Z"/>
        <path class="cls-1" d="M346.33,33.55v-3.53c0-9.14,5.62-17.5,16.63-17.5s16.63,8.35,16.63,17.5v3.53c0,9.15-5.62,17.5-16.63,17.5s-16.63-8.35-16.63-17.5ZM362.97,43.85c6.26,0,9.07-4.75,9.07-10.3v-3.53c0-5.54-2.81-10.37-9.07-10.37s-9.07,4.82-9.07,10.37v3.53c0,5.54,2.81,10.3,9.07,10.3Z"/>
        <path class="cls-1" d="M391.98,35.5V13.18h7.56v22.11c0,5.47,3.02,8.57,8.14,8.57s7.99-3.1,7.99-8.57V13.18h7.56v22.32c0,8.42-5.19,15.48-15.55,15.48s-15.7-7.06-15.7-15.48Z"/>
        <path class="cls-1" d="M435.61,33.55v-3.53c0-9.14,5.11-17.5,16.06-17.5,4.1,0,7.34,1.37,9.65,3.53V0h7.56v50.4h-7.56v-2.88c-2.3,2.16-5.54,3.53-9.65,3.53-10.95,0-16.06-8.35-16.06-17.5ZM452.25,43.85c6.26,0,9.07-4.75,9.07-10.3v-3.53c0-5.54-2.81-10.37-9.07-10.37s-9.07,4.82-9.07,10.37v3.53c0,5.54,2.81,10.3,9.07,10.3Z"/>
      </g>
      <path class="cls-1" d="M76.47,28.35c0,7.3-5.94,13.24-13.24,13.24v8.82c12.16,0,22.06-9.9,22.06-22.06h-8.82ZM58.82,28.35c0,7.3-5.94,13.24-13.24,13.24v8.82c12.16,0,22.06-9.9,22.06-22.06h-8.82ZM80.88,41.58v8.82h8.82v-8.82h-8.82Z"/>
      <path class="cls-2" d="M36.76,50.4h-17.19c-10.26,0-19.04-7.9-19.55-18.15C-.51,21.49,7.92,12.52,18.49,12.18c1.93-3.1,4.52-5.74,7.61-7.75C30.15,1.8,34.86.4,39.71.4c6.45,0,12.54,2.45,17.16,6.82,2.05-.62,4.19-.93,6.37-.93,12.16,0,22.06,9.9,22.06,22.06h-8.82c0-7.3-5.94-13.24-13.24-13.24-1.99,0-3.89.43-5.67,1.28l-3.13,1.49-2.19-2.68c-3.34-4.09-8.4-6.3-13.71-5.92-5.96.42-11.14,4.27-13.67,9.69l-1.19,2.55-3.2-.42c-.47-.06-.92-.09-1.35-.09-6,0-10.82,5.17-10.25,11.29.5,5.33,5.19,9.3,10.55,9.3h26.17s0,0,0,0c0,4.87-3.95,8.82-8.82,8.82Z"/>
    </g>
  </g>
</svg>