<?xml version="1.0" encoding="UTF-8"?>
<svg id="_Слой_2" data-name="Слой 2" xmlns="http://www.w3.org/2000/svg" viewBox="0 0 85.29 50">
  <defs>
    <style>
      .cls-1 {
        fill: #36e;
      }
    </style>
  </defs>
  <g id="Layer_1" data-name="Layer 1">
    <path class="cls-1" d="M59.28,27.94c0,7.3-5.94,13.24-13.24,13.24v8.82c12.16,0,22.06-9.9,22.06-22.06h-8.82ZM41.63,27.94c0,7.3-5.94,13.24-13.24,13.24v8.82c12.16,0,22.06-9.9,22.06-22.06h-8.82ZM63.69,41.18v8.82h8.82v-8.82h-8.82Z"/>
    <path class="cls-1" d="M19.57,50h0c-10.26,0-19.04-7.9-19.55-18.15C-.51,21.08,7.92,12.12,18.49,11.77c1.93-3.1,4.52-5.74,7.61-7.75C30.15,1.39,34.86,0,39.71,0c6.45,0,12.54,2.45,17.16,6.82,2.05-.62,4.19-.93,6.37-.93,12.16,0,22.06,9.9,22.06,22.06h-8.82c0-7.3-5.94-13.24-13.24-13.24-1.99,0-3.89.43-5.67,1.28l-3.13,1.49-2.19-2.68c-3.34-4.09-8.4-6.3-13.71-5.92-5.96.42-11.14,4.27-13.67,9.69l-1.19,2.55-3.2-.42c-.47-.06-.92-.09-1.35-.09-6,0-10.82,5.17-10.25,11.29.5,5.33,5.19,9.3,10.55,9.3h8.98s0,0,0,0c0,4.87-3.95,8.82-8.82,8.82Z"/>
  </g>
</svg>